<?xml version="1.0" encoding="UTF-8"?>
<svg version="1.1" xmlns="http://www.w3.org/2000/svg" width="512" height="512">
<path d="M0 0 C16.80910868 12.83415717 26.93577635 30.15521264 30.46484375 50.8671875 C32.93238946 70.18454534 28.96194419 88.1564045 18.5078125 104.62890625 C16.90844882 107.02803529 16.90844882 107.02803529 17.15234375 110.0546875 C18.47379961 111.55567512 18.47379961 111.55567512 20.33984375 112.9921875 C24.22104251 116.2391584 27.95070468 119.60700926 31.65234375 123.0546875 C35.73443217 126.84196487 39.85008077 130.57239245 44.0625 134.21484375 C47.33348864 137.09453655 50.52737466 140.05823003 53.73291016 143.01025391 C56.48725472 145.54223574 59.25985585 148.04511551 62.08984375 150.4921875 C66.27266386 154.11613394 70.31506182 157.88724496 74.37255859 161.64990234 C77.88716404 164.90333537 81.44843042 168.08877512 85.0703125 171.22265625 C88.28726168 174.05333011 91.43205055 176.96235766 94.58569336 179.86303711 C99.40838257 184.29705689 104.27584044 188.67994659 109.15234375 193.0546875 C111.65546792 195.30671457 114.15780989 197.55960873 116.66015625 199.8125 C118.29974254 201.28761368 119.9403403 202.76160402 121.58203125 204.234375 C128.14772439 210.12881517 134.6565607 216.08347799 141.15234375 222.0546875 C141.85359375 221.71695313 142.55484375 221.37921875 143.27734375 221.03125 C155.97007205 215.06428805 165.54610677 213.30196018 179.06640625 217.79296875 C188.50950379 221.65388078 195.02324071 229.11211537 199.390625 238.16015625 C202.92955853 246.96211912 202.50093475 258.86018995 199.08984375 267.6171875 C194.61286699 276.75872384 188.3870384 282.73966649 179.15234375 287.0546875 C173.81729487 288.87262368 169.26614727 289.31174047 163.71484375 289.1796875 C162.98330078 289.17066406 162.25175781 289.16164063 161.49804688 289.15234375 C159.71600077 289.12904903 157.93412616 289.0931894 156.15234375 289.0546875 C147.4540597 308.56749104 138.79900932 328.0985011 130.22299194 347.66537476 C125.86526173 357.60770695 121.49825703 367.54575499 117.10546875 377.47265625 C116.68497757 378.4230629 116.26448639 379.37346954 115.83125305 380.35267639 C113.81724583 384.90395245 111.80169721 389.45453766 109.78393555 394.00415039 C104.47820104 405.98070486 99.28630013 418.00352934 94.15234375 430.0546875 C94.56638962 430.5283223 94.98043549 431.00195709 95.4070282 431.48994446 C95.94906387 432.11499374 96.49109955 432.74004303 97.04956055 433.3840332 C97.58735641 434.002043 98.12515228 434.6200528 98.679245 435.25679016 C100.4745571 437.44794458 101.75013358 439.6868273 102.96484375 442.2421875 C103.56232422 443.47001953 103.56232422 443.47001953 104.171875 444.72265625 C107.31802664 452.20573405 107.34119396 460.79357182 104.46484375 468.3671875 C100.25443774 477.50435331 94.84334988 483.34664468 85.34375 487.19140625 C76.80460645 489.50126026 67.63149846 489.28650204 59.58984375 485.5546875 C54.34710754 482.51717276 50.5088302 479.09409195 47.15234375 474.0546875 C46.72050781 473.41144531 46.28867187 472.76820313 45.84375 472.10546875 C41.91086989 464.96096336 42.8036707 456.94825798 43.15234375 449.0546875 C41.44884766 448.55775391 41.44884766 448.55775391 39.7109375 448.05078125 C32.7390891 445.72230079 26.19477085 442.42499274 19.57870483 439.25100708 C16.34777349 437.70129959 13.11124239 436.16345979 9.87489319 434.62510681 C8.24454586 433.85013189 6.61444851 433.07463084 4.98460388 432.29859924 C-1.54270744 429.19229942 -8.09210104 426.13645213 -14.66015625 423.1171875 C-16.17488525 422.42036865 -16.17488525 422.42036865 -17.72021484 421.70947266 C-19.88295548 420.71509767 -22.04588641 419.72113651 -24.20898438 418.72753906 C-31.61358873 415.32491041 -39.01120076 411.90707603 -46.41015625 408.4921875 C-47.2261026 408.1156604 -48.04204895 407.7391333 -48.88272095 407.35119629 C-62.20958408 401.20111672 -75.53049663 395.03824903 -88.84765625 388.8671875 C-89.69748077 388.4734494 -90.5473053 388.0797113 -91.42288208 387.67404175 C-93.07772446 386.90725685 -94.73242634 386.14016864 -96.38697815 385.37275696 C-97.96581112 384.64130847 -99.54541323 383.91151752 -101.12583923 383.18351746 C-104.83611934 381.47112426 -108.52624223 379.7306336 -112.1875 377.91552734 C-112.87013916 377.58203781 -113.55277832 377.24854828 -114.25610352 376.904953 C-116.09094301 376.00594144 -117.91881149 375.09274099 -119.74609375 374.1784668 C-123.07785921 372.97127879 -124.54194448 372.90948532 -127.84765625 374.0546875 C-129.70480421 375.33846212 -129.70480421 375.33846212 -131.41015625 376.9296875 C-138.34029032 382.30248807 -146.00031772 383.59075147 -154.59765625 382.5546875 C-164.11749293 380.66889646 -170.266227 375.92479806 -175.84765625 368.0546875 C-179.91063424 361.41272702 -179.45364236 353.58622919 -178.84765625 346.0546875 C-178.36435921 344.43881559 -177.84853245 342.83191242 -177.28515625 341.2421875 C-176.61634801 339.16318887 -176.61634801 339.16318887 -176.84765625 337.0546875 C-179.3354022 333.45448513 -182.48554663 330.82318264 -185.84765625 328.0546875 C-187.16245566 326.91149339 -188.47511313 325.765829 -189.78515625 324.6171875 C-190.43355469 324.06160156 -191.08195312 323.50601562 -191.75 322.93359375 C-194.21191525 320.72841454 -196.52489265 318.40582073 -198.84765625 316.0546875 C-201.76392228 313.10285725 -204.6937146 310.25079891 -207.84765625 307.5546875 C-211.0015979 304.85857609 -213.93139022 302.00651775 -216.84765625 299.0546875 C-222.5287215 293.31253552 -228.48193541 288.0279069 -234.84765625 283.0546875 C-235.523125 283.40402344 -236.19859375 283.75335938 -236.89453125 284.11328125 C-237.7865625 284.56832031 -238.67859375 285.02335937 -239.59765625 285.4921875 C-240.479375 285.94464844 -241.36109375 286.39710938 -242.26953125 286.86328125 C-250.45231227 290.64471793 -261.26814702 290.29042676 -269.72265625 287.4921875 C-280.52220019 282.9027825 -286.31662255 275.6459504 -291.72265625 265.5546875 C-294.50917349 257.31124068 -294.23046613 245.0459239 -290.8828125 236.96484375 C-285.26444875 226.59737253 -277.15259419 219.48489706 -265.84765625 216.0546875 C-253.97161888 213.3448413 -243.51035616 216.47555366 -232.84765625 222.0546875 C-232.36296875 221.55839844 -231.87828125 221.06210938 -231.37890625 220.55078125 C-227.4420833 216.56096261 -223.42838017 212.75527059 -219.1796875 209.1015625 C-216.18495502 206.47302009 -213.26791554 203.76540464 -210.34765625 201.0546875 C-206.26485465 197.26815281 -202.14995018 193.53700931 -197.9375 189.89453125 C-195.20395106 187.48798629 -192.52649968 185.02167306 -189.84765625 182.5546875 C-186.5691052 179.53542254 -183.28184668 176.53266612 -179.91015625 173.6171875 C-176.31807034 170.50504626 -172.83213633 167.28596664 -169.34765625 164.0546875 C-165.26194746 160.26586814 -161.14372352 156.53296886 -156.9296875 152.88671875 C-153.71273832 150.05604489 -150.56794945 147.14701734 -147.41430664 144.24633789 C-142.59161743 139.81231811 -137.72415956 135.42942841 -132.84765625 131.0546875 C-130.3534532 128.81068664 -127.86002555 126.56582961 -125.3671875 124.3203125 C-123.63798378 122.76536962 -121.90606567 121.21344161 -120.171875 119.6640625 C-115.95507291 115.89080552 -111.78343957 112.12166359 -107.84765625 108.0546875 C-108.29496094 107.41144531 -108.74226562 106.76820312 -109.203125 106.10546875 C-121.06112149 88.38168295 -125.13356541 68.49971177 -121.6015625 47.5546875 C-117.421806 28.15022209 -106.99448683 10.17198209 -90.19628906 -1.04833984 C-61.66409801 -18.95073473 -28.01298337 -19.13644132 0 0 Z M-101.828125 120.77734375 C-102.92060547 121.93556641 -102.92060547 121.93556641 -104.03515625 123.1171875 C-107.43806448 126.63498491 -110.90583777 129.92398501 -114.6171875 133.109375 C-117.40631407 135.54192322 -120.12684844 138.04645601 -122.84765625 140.5546875 C-126.12603235 143.57413776 -129.41347134 146.57671366 -132.78515625 149.4921875 C-136.37724216 152.60432874 -139.86317617 155.82340836 -143.34765625 159.0546875 C-147.43336504 162.84350686 -151.55158898 166.57640614 -155.765625 170.22265625 C-158.98257418 173.05333011 -162.12736305 175.96235766 -165.28100586 178.86303711 C-170.10369507 183.29705689 -174.97115294 187.67994659 -179.84765625 192.0546875 C-181.51458272 193.55439878 -183.18124774 195.05440071 -184.84765625 196.5546875 C-187.32267859 198.78297864 -189.79837379 201.0104759 -192.27734375 203.234375 C-197.3867687 207.82143062 -202.45888513 212.4463268 -207.51147461 217.09570312 C-210.40139519 219.74874497 -213.32006013 222.36105433 -216.28515625 224.9296875 C-219.27641718 227.521281 -222.09274351 230.21368374 -224.84765625 233.0546875 C-224.57050781 233.67214844 -224.29335937 234.28960937 -224.0078125 234.92578125 C-221.80066015 240.08627624 -220.37423719 244.62939244 -220.0234375 250.2421875 C-219.94741131 252.15416589 -219.94741131 252.15416589 -218.84765625 254.0546875 C-216.2003379 254.78443444 -213.60575254 255.38797551 -210.91894531 255.93408203 C-210.08802368 256.10993835 -209.25710205 256.28579468 -208.40100098 256.46697998 C-205.64012609 257.04894125 -202.87683897 257.61842622 -200.11328125 258.1875 C-198.19842095 258.58760146 -196.28368852 258.98831534 -194.36907959 259.38961792 C-190.34838435 260.23043919 -186.32652894 261.06539162 -182.30371094 261.89599609 C-177.14901031 262.96055383 -171.99688831 264.03701373 -166.84552383 265.11758614 C-162.88808812 265.94677742 -158.92960342 266.77086341 -154.97075653 267.59328842 C-153.07109702 267.98832235 -151.17170596 268.38464956 -149.27259064 268.78229141 C-146.61404748 269.33788352 -143.95422947 269.88689556 -141.29394531 270.43408203 C-140.50932922 270.59925323 -139.72471313 270.76442444 -138.9163208 270.93460083 C-135.17503303 271.69699829 -131.67024862 272.25101668 -127.84765625 272.0546875 C-124.23751221 263.64929692 -121.01703418 255.1603947 -117.99609375 246.52734375 C-117.53946778 245.2309207 -117.08249803 243.93461869 -116.62521362 242.63842773 C-115.65620729 239.88998122 -114.68915014 237.14086077 -113.72375488 234.3911438 C-111.43051022 227.85966763 -109.12788646 221.33149702 -106.82511902 214.80337334 C-106.30274822 213.32242552 -105.78050134 211.84143399 -105.25837708 210.36039925 C-101.60821758 200.00768308 -97.92922387 189.66578524 -94.21484375 179.3359375 C-93.55789017 177.50838173 -93.55789017 177.50838173 -92.88766479 175.64390564 C-90.82944153 169.92200423 -88.76695086 164.20166703 -86.70068359 158.48266602 C-85.96317113 156.43507481 -85.2257012 154.38746828 -84.48828125 152.33984375 C-84.16117157 151.4384668 -83.83406189 150.53708984 -83.49703979 149.60839844 C-81.41205176 143.81152529 -79.55970135 137.97232045 -77.84765625 132.0546875 C-78.96785156 131.36761719 -80.08804688 130.68054688 -81.2421875 129.97265625 C-82.71497727 129.06271607 -84.18762618 128.15254788 -85.66015625 127.2421875 C-86.39814453 126.79037109 -87.13613281 126.33855469 -87.89648438 125.87304688 C-88.60869141 125.43154297 -89.32089844 124.99003906 -90.0546875 124.53515625 C-91.03659058 123.93030396 -91.03659058 123.93030396 -92.03833008 123.31323242 C-93.84765625 122.0546875 -93.84765625 122.0546875 -95.3972168 120.3996582 C-97.88209421 118.09546873 -99.42479587 118.68687403 -101.828125 120.77734375 Z M1.27734375 122.1171875 C-4.32874095 126.6576528 -10.43783114 129.79528648 -16.84765625 133.0546875 C-15.41736087 141.48636799 -12.99952482 149.54957014 -10.47265625 157.70703125 C-10.03053871 159.14720998 -9.58886944 160.5875264 -9.14761353 162.02796936 C-8.2077601 165.0928401 -7.2649312 168.15677245 -6.31964111 171.2199707 C-4.83650081 176.02607124 -3.35982029 180.83414049 -1.88427734 185.64257812 C-0.37296724 190.56645321 1.1388074 195.49018322 2.65298462 200.41317749 C7.23873335 215.32283369 11.7942075 230.24163522 16.34130859 245.16311646 C17.87913216 250.20941587 19.41844633 255.25526033 20.95767212 260.3011322 C22.35613155 264.8855788 23.75425984 269.47012637 25.15234375 274.0546875 C35.99328535 273.58940211 46.5140557 271.08888681 57.09765625 268.87109375 C59.11972061 268.45103635 61.14184689 268.03127696 63.16403198 267.61180115 C67.37911744 266.73585177 71.59319232 265.8552249 75.80664062 264.97143555 C81.21745751 263.83705634 86.63098371 262.71623419 92.04536629 261.59901524 C96.21059259 260.73772135 100.37413892 259.86852331 104.53722763 258.99696159 C106.5342586 258.58004791 108.53185301 258.16582397 110.53000259 257.75430489 C113.30840797 257.1810371 116.08432875 256.59699596 118.85986328 256.01000977 C119.68990372 255.84110733 120.51994415 255.6722049 121.37513733 255.4981842 C123.31590346 255.08176584 125.23738799 254.57710674 127.15234375 254.0546875 C128.41752608 251.52432284 128.62299247 249.23177094 129.02734375 246.4296875 C129.84680848 241.2769926 131.12350334 236.85012847 133.15234375 232.0546875 C132.24355469 231.23677734 132.24355469 231.23677734 131.31640625 230.40234375 C129.54283926 228.80613345 127.76941304 227.20976673 125.99609375 225.61328125 C124.22631298 224.02096476 122.45564012 222.42963852 120.68359375 220.83984375 C116.10592976 216.73034994 111.55497704 212.59408853 107.02734375 208.4296875 C103.15866553 204.87215651 99.2490025 201.37179175 95.27734375 197.9296875 C91.99725794 195.03549414 88.78966318 192.06249858 85.57202148 189.09936523 C82.81760947 186.56728634 80.04491876 184.06433482 77.21484375 181.6171875 C73.03202364 177.99324106 68.98962568 174.22213004 64.93212891 170.45947266 C61.41752346 167.20603963 57.85625708 164.02059988 54.234375 160.88671875 C51.01742582 158.05604489 47.87263695 155.14701734 44.71899414 152.24633789 C39.89630493 147.81231811 35.02884706 143.42942841 30.15234375 139.0546875 C27.66224244 136.81437692 25.17291519 134.57320831 22.68359375 132.33203125 C20.91378314 130.73974794 19.14285826 129.14870263 17.37109375 127.55859375 C16.47390625 126.75292969 15.57671875 125.94726562 14.65234375 125.1171875 C13.83765625 124.38628906 13.02296875 123.65539062 12.18359375 122.90234375 C10.80945456 121.6524056 9.46585125 120.368195 8.15234375 119.0546875 C4.49698141 119.0546875 3.98449718 119.79312182 1.27734375 122.1171875 Z M-65.84765625 137.0546875 C-76.52647389 166.81718436 -87.18786731 196.58579013 -97.81933594 226.36523438 C-98.20876373 227.4557309 -98.59819153 228.54622742 -98.99942017 229.66976929 C-99.76848767 231.82502438 -100.53655365 233.98063714 -101.30355835 236.1366272 C-103.17335263 241.38855011 -105.05526711 246.63548452 -106.9690218 251.87153339 C-107.92001151 254.47548249 -108.86543182 257.08143777 -109.81040764 259.68757439 C-110.48830889 261.54991328 -111.17420888 263.40933433 -111.86024475 265.26869202 C-112.26593185 266.38908371 -112.67161896 267.5094754 -113.08959961 268.66381836 C-113.45371445 269.65812363 -113.81782928 270.65242889 -114.19297791 271.67686462 C-115.13041069 274.04634101 -115.13041069 274.04634101 -113.84765625 276.0546875 C-111.02617804 276.90711045 -111.02617804 276.90711045 -107.58203125 277.5625 C-105.65810547 277.95888672 -105.65810547 277.95888672 -103.6953125 278.36328125 C-103.02258301 278.49718262 -102.34985352 278.63108398 -101.65673828 278.76904297 C-99.61788565 279.17565313 -97.58236345 279.59643797 -95.546875 280.01953125 C-87.76528161 281.82377884 -87.76528161 281.82377884 -79.84765625 282.0546875 C-77.98617658 279.83591076 -77.98617658 279.83591076 -76.53515625 276.9296875 C-71.85672472 269.09883644 -66.95384333 265.80485783 -58.578125 262.390625 C-57.50328857 261.95024902 -56.42845215 261.50987305 -55.32104492 261.05615234 C-54.50482666 260.72566895 -53.6886084 260.39518555 -52.84765625 260.0546875 C-52.82432694 244.29552006 -52.80667692 228.53635726 -52.79584408 212.77717686 C-52.79068119 205.46041348 -52.78363863 198.1436608 -52.7722168 190.8269043 C-52.76226974 184.45185732 -52.75580277 178.07681809 -52.75356776 171.70176357 C-52.75226068 168.32420736 -52.74917506 164.94667334 -52.74192619 161.56912422 C-52.73472012 157.80461407 -52.73366512 154.04015065 -52.73413086 150.27563477 C-52.72873795 148.58386864 -52.72873795 148.58386864 -52.72323608 146.85792542 C-52.72461075 145.83843811 -52.72598541 144.81895081 -52.72740173 143.76856995 C-52.72647994 142.87719613 -52.72555815 141.98582232 -52.72460842 141.06743717 C-52.62439119 139.05707214 -52.62439119 139.05707214 -53.84765625 138.0546875 C-55.86360207 137.82040972 -57.88613025 137.64132626 -59.91015625 137.4921875 C-61.01488281 137.40839844 -62.11960938 137.32460937 -63.2578125 137.23828125 C-64.11246094 137.17769531 -64.96710938 137.11710938 -65.84765625 137.0546875 Z M-30.84765625 137.0546875 C-33.81765625 137.7146875 -36.78765625 138.3746875 -39.84765625 139.0546875 C-39.84765625 178.9846875 -39.84765625 218.9146875 -39.84765625 260.0546875 C-36.21765625 261.3746875 -32.58765625 262.6946875 -28.84765625 264.0546875 C-24.28515625 267.3046875 -24.28515625 267.3046875 -22.40625 268.8828125 C-20.9062304 270.25500787 -20.9062304 270.25500787 -18.84765625 270.0546875 C-18.57179688 270.62703125 -18.2959375 271.199375 -18.01171875 271.7890625 C-16.85297777 274.04433017 -15.57889919 276.16325128 -14.22265625 278.3046875 C-13.77664063 279.01109375 -13.330625 279.7175 -12.87109375 280.4453125 C-12.53335937 280.97640625 -12.195625 281.5075 -11.84765625 282.0546875 C-3.66677419 281.5080387 4.17020314 279.88344882 12.15234375 278.0546875 C11.57886397 269.98980513 9.01712114 262.50587367 6.62109375 254.8359375 C6.15222945 253.3173649 5.68399797 251.79859679 5.21635437 250.27964783 C3.96196349 246.21069961 2.69972634 242.14422621 1.43590927 238.07819748 C0.12640598 233.86087994 -1.17642358 229.64150383 -2.47924805 225.42211914 C-2.73940169 224.5795799 -2.99955534 223.73704065 -3.26759243 222.86896992 C-3.79449852 221.16244219 -4.32137271 219.45590462 -4.8482151 217.74935722 C-5.64252637 215.17743726 -6.43774745 212.60579987 -7.233078 210.03419495 C-10.55980994 199.27106653 -13.8434082 188.49580909 -17.0859375 177.70703125 C-17.48541236 176.37971484 -17.8849375 175.05241357 -18.28451538 173.72512817 C-19.77523815 168.77138127 -21.2650371 163.8173865 -22.74316406 158.85986328 C-23.73744318 155.52602229 -24.73909132 152.1944778 -25.7421875 148.86328125 C-26.03072098 147.8867308 -26.31925446 146.91018036 -26.61653137 145.90403748 C-26.88334213 145.02232376 -27.15015289 144.14061005 -27.42504883 143.23217773 C-27.65323807 142.46800034 -27.88142731 141.70382294 -28.11653137 140.91648865 C-28.78423857 138.85163044 -28.78423857 138.85163044 -30.84765625 137.0546875 Z M-221.84765625 266.0546875 C-223.7101643 268.26960434 -223.7101643 268.26960434 -224.84765625 271.0546875 C-223.55751505 275.00050896 -220.62379006 277.51050003 -217.72265625 280.3671875 C-216.9812439 281.09893188 -216.9812439 281.09893188 -216.22485352 281.84545898 C-212.88394703 285.11704532 -209.43114476 288.21355312 -205.875 291.24609375 C-202.53022571 294.22996754 -199.43430468 297.46088482 -196.28515625 300.6484375 C-194.1976499 302.70918095 -192.07596402 304.64984376 -189.84765625 306.5546875 C-186.6937146 309.25079891 -183.76392228 312.10285725 -180.84765625 315.0546875 C-173.7285786 322.85024689 -173.7285786 322.85024689 -164.84765625 328.0546875 C-163.25959271 327.31133861 -161.67187906 326.56723062 -160.08618164 325.81884766 C-157.24238718 324.84806822 -154.58798184 324.66074679 -151.59375 324.453125 C-150.51665771 324.37497559 -149.43956543 324.29682617 -148.32983398 324.21630859 C-147.10115601 324.13630615 -147.10115601 324.13630615 -145.84765625 324.0546875 C-143.99013325 318.98488095 -142.13889113 313.91284254 -140.29345703 308.83862305 C-139.66465018 307.11240704 -139.0341252 305.38681589 -138.40185547 303.66186523 C-137.4938544 301.1837493 -136.59203614 298.70345908 -135.69140625 296.22265625 C-135.40704712 295.45068405 -135.12268799 294.67871185 -134.82971191 293.88334656 C-133.72169228 290.81594914 -132.84765625 288.34262631 -132.84765625 285.0546875 C-143.80639049 282.23746165 -154.79803358 279.7070737 -165.87109375 277.3828125 C-167.43531471 277.05242687 -168.99949232 276.72183592 -170.56362915 276.39105225 C-173.80179383 275.70690938 -177.04037289 275.02477709 -180.27929688 274.34423828 C-184.43381706 273.47121155 -188.58736376 272.59364848 -192.74063683 271.71471024 C-195.95209628 271.03547459 -199.16397542 270.35824195 -202.37599564 269.68166351 C-203.90955673 269.35844909 -205.44300239 269.03468647 -206.9763298 268.7103653 C-209.10278406 268.26097038 -211.22977128 267.81419362 -213.35693359 267.36816406 C-214.56554047 267.11375549 -215.77414734 266.85934692 -217.01937866 266.597229 C-219.69504673 265.99188996 -219.69504673 265.99188996 -221.84765625 266.0546875 Z M119.25219727 267.87475586 C118.33013489 268.06822098 117.40807251 268.2616861 116.45806885 268.46101379 C113.39870105 269.10350152 110.33996364 269.74893701 107.28125 270.39453125 C105.16139825 270.84066595 103.04151977 271.28667365 100.9216156 271.7325592 C96.47342977 272.66863555 92.02554967 273.60614794 87.57788086 274.54467773 C81.8706323 275.74889518 76.16268004 276.9497378 70.45449924 278.14952755 C66.07485302 279.07043255 61.69556635 279.99303786 57.31638908 280.91617012 C55.21170623 281.35964 53.10691531 281.80259733 51.00201607 282.24503899 C48.06160754 282.86338613 45.1216856 283.48399571 42.18188477 284.10522461 C41.30749252 284.2886441 40.43310028 284.4720636 39.5322113 284.66104126 C38.33134384 284.91552788 38.33134384 284.91552788 37.10621643 285.17515564 C36.41101678 285.32172072 35.71581713 285.46828581 34.99955082 285.61929226 C32.93942746 286.07557715 32.93942746 286.07557715 30.15234375 287.0546875 C30.73954177 291.83482561 31.68488886 296.24685674 33.10742188 300.84545898 C33.30491311 301.48910306 33.50240435 302.13274714 33.70588017 302.79589558 C34.36019151 304.92407788 35.02189859 307.04988431 35.68359375 309.17578125 C36.15241973 310.69591486 36.62074614 312.21620262 37.08860779 313.7366333 C38.08597449 316.97454346 39.08648629 320.21145745 40.08956909 323.44760132 C41.65806969 328.50815335 43.2196283 333.57082826 44.77954102 338.6340332 C45.3050071 340.33946254 45.83047402 342.04489162 46.35594177 343.75032043 C46.61659361 344.59633127 46.87724545 345.44234211 47.14579582 346.31398964 C47.93958975 348.88959307 48.73406612 351.46498513 49.52870178 354.04032898 C54.42930606 369.92677853 59.26958006 385.83120311 64.08984375 401.7421875 C64.8176874 404.14315413 65.54555132 406.54411462 66.2734375 408.94506836 C67.90092607 414.31458269 69.52711292 419.68448939 71.15234375 425.0546875 C74.45234375 425.3846875 77.75234375 425.7146875 81.15234375 426.0546875 C88.44923629 409.88494634 95.65629147 393.67763244 102.77734375 377.4296875 C108.76965995 363.75782465 114.77488202 350.0918731 120.80889893 336.43835449 C122.01516455 333.70726229 123.21944426 330.97530171 124.42333984 328.24316406 C127.9198593 320.31495771 131.43619655 312.39860102 135.05078125 304.5234375 C135.63064757 303.25191641 136.21024815 301.9802741 136.78955078 300.70849609 C137.82848703 298.43529226 138.87814001 296.16694059 139.94091797 293.90478516 C140.38709473 292.92558105 140.83327148 291.94637695 141.29296875 290.9375 C141.87353027 289.69057373 141.87353027 289.69057373 142.46582031 288.41845703 C143.2999536 285.5464519 143.08159642 283.88025874 142.15234375 281.0546875 C140.51604656 279.68425434 138.84575806 278.35388091 137.15234375 277.0546875 C135.203125 274.2578125 135.203125 274.2578125 133.46484375 271.3046875 C132.41295522 269.52277433 131.32111732 267.76221564 130.15234375 266.0546875 C126.46545612 266.0546875 122.8498099 267.11352566 119.25219727 267.87475586 Z M-119.84765625 288.0546875 C-124.46765625 300.9246875 -129.08765625 313.7946875 -133.84765625 327.0546875 C-129.59301224 332.0546875 -129.59301224 332.0546875 -125.84765625 333.0546875 C-123.29788719 332.05905065 -123.29788719 332.05905065 -120.53515625 330.4765625 C-119.46765137 329.89729004 -118.40014648 329.31801758 -117.30029297 328.72119141 C-116.16092285 328.08874512 -115.02155273 327.45629883 -113.84765625 326.8046875 C-112.67758756 326.16392685 -111.50717507 325.52379361 -110.33642578 324.88427734 C-100.41028556 319.4428978 -90.59519414 313.80925806 -80.84765625 308.0546875 C-81.83765625 301.6196875 -81.83765625 301.6196875 -82.84765625 295.0546875 C-87.47300962 294.05255299 -92.09947671 293.0557944 -96.72705078 292.06396484 C-98.30060959 291.72591709 -99.87385594 291.38641141 -101.44677734 291.04541016 C-103.70980231 290.55506425 -105.97390507 290.07000007 -108.23828125 289.5859375 C-109.29006561 289.35626282 -109.29006561 289.35626282 -110.36309814 289.12194824 C-113.63823515 288.42690437 -116.47663499 288.0546875 -119.84765625 288.0546875 Z M8.828125 291.1484375 C7.28608398 291.48681641 7.28608398 291.48681641 5.71289062 291.83203125 C4.10510742 292.18974609 4.10510742 292.18974609 2.46484375 292.5546875 C1.38138672 292.79316406 0.29792969 293.03164063 -0.81835938 293.27734375 C-3.49542 293.86700468 -6.17180614 294.45956172 -8.84765625 295.0546875 C-8.99460937 296.02148438 -9.1415625 296.98828125 -9.29296875 297.984375 C-10.5714153 305.6334024 -12.11039911 311.62036341 -16.640625 318.1015625 C-18.11051135 320.0973525 -18.11051135 320.0973525 -17.84765625 323.0546875 C-16.81250194 324.88679641 -16.81250194 324.88679641 -15.34765625 326.765625 C-14.79851562 327.50490234 -14.249375 328.24417969 -13.68359375 329.00585938 C-13.07773437 329.80572266 -12.471875 330.60558594 -11.84765625 331.4296875 C-11.22117187 332.26822266 -10.5946875 333.10675781 -9.94921875 333.97070312 C-4.61797233 341.08781173 0.78365986 348.15228319 6.1875 355.21435547 C11.1566663 361.71663883 16.02660901 368.28566359 20.86108398 374.88842773 C25.24016945 380.85427311 29.71308413 386.74352952 34.21484375 392.6171875 C41.37817026 401.96689339 48.31437131 411.46513368 55.15234375 421.0546875 C56.38812427 417.34734594 55.76468937 416.01703048 54.6237793 412.31640625 C54.26074707 411.1236055 53.89771484 409.93080475 53.52368164 408.70185852 C53.11229042 407.38192189 52.70074577 406.06203307 52.2890625 404.7421875 C51.86478604 403.35950541 51.44130106 401.97658024 51.01855469 400.59342957 C49.87345366 396.85436953 48.71778114 393.11865229 47.5602684 389.38341904 C46.35973622 385.50276734 45.16908859 381.61908777 43.9777832 377.7355957 C42.26381814 372.1512559 40.54685049 366.56785644 38.82590008 360.98566532 C35.78186211 351.11162076 32.75760173 341.2316676 29.74609375 331.34765625 C29.53512369 330.65528996 29.32415363 329.96292366 29.10679054 329.24957657 C28.28051029 326.53766205 27.4543473 323.82571187 26.62841511 321.11369133 C24.53907581 314.25328047 22.44551847 307.3941594 20.3515625 300.53515625 C19.72485249 298.48201529 19.09814339 296.42887405 18.47143555 294.37573242 C18.03174376 292.93538244 17.59204888 291.49503341 17.15234375 290.0546875 C14.16110188 290.0546875 11.74268958 290.50433483 8.828125 291.1484375 Z M-82.11328125 323.2734375 C-82.74312927 323.60960083 -83.37297729 323.94576416 -84.02191162 324.29211426 C-85.36461634 325.00983878 -86.70624061 325.72958759 -88.046875 326.45117188 C-90.04574389 327.52675371 -92.04789297 328.59598802 -94.05078125 329.6640625 C-97.33429666 331.41882391 -100.60616038 333.19402578 -103.87280273 334.97998047 C-105.20864674 335.7069412 -106.54745258 336.42848135 -107.88891602 337.14501953 C-109.85608567 338.19635218 -111.81343796 339.26416969 -113.76953125 340.3359375 C-114.91518555 340.95533203 -116.06083984 341.57472656 -117.24121094 342.21289062 C-119.94401932 343.7800959 -119.94401932 343.7800959 -120.72143555 346.11230469 C-120.88862626 348.68516605 -120.94085533 351.22596489 -120.91015625 353.8046875 C-120.88932292 355.5546875 -120.86848958 357.3046875 -120.84765625 359.0546875 C-109.05151233 365.05437956 -97.11788658 370.70721339 -85.09765625 376.2421875 C-83.26957274 377.08624457 -81.44161214 377.93056787 -79.61376953 378.77514648 C-75.99914346 380.44514049 -72.38403825 382.11408987 -68.76855469 383.78222656 C-62.41429254 386.71512702 -56.06824984 389.66558215 -49.72265625 392.6171875 C-42.12174084 396.14922818 -34.51645308 399.67161888 -26.90625 403.18359375 C-26.11852707 403.54713959 -25.33080414 403.91068542 -24.51921082 404.2852478 C-20.42819666 406.17293299 -16.33651265 408.05914992 -12.24389648 409.94335938 C-4.25927737 413.62133294 3.71825695 417.31316264 11.67710876 421.04663086 C15.44345542 422.81324141 19.21215332 424.57480735 22.98086548 426.33636475 C24.79085763 427.18431557 26.59961552 428.03490641 28.40707397 428.88824463 C30.92459281 430.07663898 33.44617611 431.25597638 35.96875 432.43359375 C36.71075653 432.78687241 37.45276306 433.14015106 38.21725464 433.50413513 C42.20264111 435.35312772 45.73165587 436.56851158 50.15234375 437.0546875 C48.85185999 433.43826289 47.30745474 430.66798216 44.94921875 427.640625 C44.30597656 426.80724609 43.66273438 425.97386719 43 425.11523438 C41.96166016 423.78588867 41.96166016 423.78588867 40.90234375 422.4296875 C39.43751267 420.53224473 37.9739953 418.63378713 36.51171875 416.734375 C35.77630859 415.78014648 35.04089844 414.82591797 34.28320312 413.84277344 C31.18369141 409.78727117 28.16388928 405.67570387 25.15234375 401.5546875 C20.22750259 394.82913969 15.21884505 388.17413939 10.15234375 381.5546875 C5.08580184 374.93518255 0.07946162 368.27860514 -4.84765625 361.5546875 C-7.17821125 358.38596817 -9.51260214 355.22009225 -11.84765625 352.0546875 C-12.88647949 350.64268066 -12.88647949 350.64268066 -13.94628906 349.20214844 C-16.11071219 346.26961081 -18.28991527 343.34860748 -20.47265625 340.4296875 C-21.148125 339.50994141 -21.82359375 338.59019531 -22.51953125 337.64257812 C-23.47472656 336.37317383 -23.47472656 336.37317383 -24.44921875 335.078125 C-25.00947754 334.32450684 -25.56973633 333.57088867 -26.14697266 332.79443359 C-28.0746723 330.82245719 -29.12564136 330.32044836 -31.84765625 330.0546875 C-33.84934612 330.71626297 -35.84910919 331.38367774 -37.84765625 332.0546875 C-40.48420728 332.29186678 -42.96498781 332.43598726 -45.59765625 332.4296875 C-46.30067871 332.42807617 -47.00370117 332.42646484 -47.72802734 332.42480469 C-58.36218847 332.17585256 -66.41685776 327.48548599 -73.84765625 320.0546875 C-77.0447002 320.0546875 -79.31766425 321.77714792 -82.11328125 323.2734375 Z " fill="#021046" transform="translate(301.84765625,18.9453125)"/>
<path d="M0 0 C13.41484742 10.75222916 23.95980682 24.66007618 27 42 C28.61169878 58.69554629 26.37351875 76.96582688 15.76660156 90.58349609 C12.69800193 94.24919868 9.39393326 97.63619041 6 101 C5.43796875 101.59554687 4.8759375 102.19109375 4.296875 102.8046875 C0.49003863 106.51134396 -4.13131591 108.83006126 -8.8125 111.25 C-9.46436279 111.59192383 -10.11622559 111.93384766 -10.7878418 112.28613281 C-23.31656125 118.47871905 -40.43338951 119.19295521 -53.9375 115.9375 C-55.64643463 115.35072972 -57.33421137 114.69993227 -59 114 C-60.1034375 113.54753906 -61.206875 113.09507812 -62.34375 112.62890625 C-77.89367119 105.58073545 -90.60090205 92.97567902 -97 77 C-103.307686 59.76723694 -102.95829978 42.50332069 -95.5625 25.7421875 C-87.64035467 9.63128618 -74.68942763 -1.53728547 -58 -8 C-57.18402344 -8.32097656 -56.36804688 -8.64195313 -55.52734375 -8.97265625 C-37.49438662 -14.96506086 -15.39010759 -10.87170044 0 0 Z " fill="#4CAEF9" transform="translate(293,28)"/>
<path d="M0 0 C1 1 1 1 1.25 3.875 C1 7 1 7 -0.23657227 8.68798828 C-2.50675577 10.37703247 -3.66481589 10.28615717 -6.46484375 10.1171875 C-7.34164795 10.08101318 -8.21845215 10.04483887 -9.12182617 10.00756836 C-10.05099854 9.9638208 -10.9801709 9.92007324 -11.9375 9.875 C-23.58695853 9.63075789 -31.34713581 11.6614065 -40.4375 19.25 C-46.91118164 25.49507651 -51.46231789 33.16929137 -52.30078125 42.26171875 C-52.34564585 55.37713712 -50.24727419 65.2221445 -41 75 C-30.00822021 83.67198491 -19.58278289 85.23250594 -6 84 C2.20239325 82.26387874 9.72955603 77.31298725 14.7890625 70.640625 C18.50715885 64.74295493 20.81954143 58.68606283 22.515625 51.953125 C23.74024086 47.17317276 23.74024086 47.17317276 27 45 C30.0625 45.1875 30.0625 45.1875 33 46 C35.95250369 50.42875553 34.96163822 53.91604502 34 59 C30.47345747 72.32036443 22.99520689 83.73422699 11.00390625 90.75390625 C-1.91774601 97.44864494 -15.56763554 99.26104673 -29.875 96.16015625 C-44.40939849 90.97179525 -54.77645974 81.07654528 -61.4375 67.3125 C-66.3103368 56.65067998 -66.87694593 42.85738259 -63.375 31.625 C-57.25968345 15.87859257 -46.90473143 5.83933902 -31.57421875 -1.09765625 C-21.86566328 -4.60578974 -9.24519965 -4.7169386 0 0 Z " fill="#03134B" transform="translate(271,34)"/>
<path d="M0 0 C6.00374279 3.57939845 11.45896432 9.8744791 13.625 16.5 C14.71222806 24.9046394 13.54105554 31.53558798 8.625 38.5 C3.90040319 43.92411235 -1.67781835 46.80583522 -8.75390625 47.8515625 C-16.32274114 48.30166536 -22.51338455 45.84944329 -28.23046875 40.890625 C-34.11627352 34.55430184 -36.01787133 27.72670057 -35.7109375 19.16796875 C-34.73602625 11.42535963 -30.40285432 7.15040499 -24.69140625 2.1640625 C-17.78681637 -2.79606446 -7.79528976 -3.44762326 0 0 Z " fill="#FC8547" transform="translate(477.375,248.5)"/>
<path d="M0 0 C6.16687765 3.66608438 11.5363248 9.69772033 13.6875 16.5625 C14.85553469 25.52648718 12.75949806 32.65873145 7.4375 39.875 C2.21668703 44.97715813 -4.1524046 47.58803048 -11.4375 47.9375 C-17.90107007 47.84166453 -23.32431022 45.14891636 -28.171875 40.953125 C-33.99623828 34.66742601 -36.00080158 27.79758518 -35.71875 19.30078125 C-34.59730348 11.74180039 -30.01242622 6.78038062 -24.375 1.97265625 C-17.51431099 -2.71807998 -7.63659363 -3.31828175 0 0 Z " fill="#F9D935" transform="translate(56.3125,248.4375)"/>
<path d="M0 0 C6.93803799 3.5677811 11.57924291 7.72702802 14.125 15.25 C15.01583833 21.8920906 15.52290978 28.83438344 12.0625 34.8125 C7.57286716 40.63005241 2.22870558 45.11888832 -4.875 47.25 C-12.06733528 48.12343202 -17.92523154 47.53936796 -23.875 43.25 C-29.39609581 38.66204715 -33.32780208 34.06765988 -34.37890625 26.734375 C-34.51433102 18.1033031 -33.86194368 11.77236141 -27.875 5.25 C-19.6068629 -1.61199133 -10.28260783 -4.39943791 0 0 Z " fill="#2CD42D" transform="translate(265.875,292.75)"/>
<path d="M0 0 C15.35096895 1.69796271 27.38926022 11.01194351 37.09375 22.47265625 C48.36434409 37.67312854 52.27880105 54.61381363 49.6953125 73.19091797 C46.81776511 88.40448165 39.73665592 99.35863984 29 110 C28.15695312 110.89332031 28.15695312 110.89332031 27.296875 111.8046875 C23.42315619 115.57646635 18.7119014 117.87656993 13.9375 120.3125 C13.25212158 120.66280273 12.56674316 121.01310547 11.8605957 121.37402344 C7.90805224 123.30898853 4.43133297 124.52299224 0 125 C0 124.34 0 123.68 0 123 C1.58572943 121.93882745 3.22174792 120.9525663 4.875 120 C17.88878652 111.88100096 28.41915918 98.80783429 33 84 C33.57985446 80.67120586 33.80116284 77.36976652 34 74 C34.1835699 72.4370334 34.37112544 70.87453018 34.5625 69.3125 C36.37284 50.06255132 32.59457209 32.97209553 20.45703125 17.6640625 C15.14257366 11.39567819 9.23760821 6.72142918 2.23828125 2.42578125 C1.49964844 1.95527344 0.76101563 1.48476563 0 1 C0 0.67 0 0.34 0 0 Z " fill="#2A91F9" transform="translate(270,19)"/>
<path d="M0 0 C3.95478251 2.91900614 7.41112181 6.50974362 9.625 10.9375 C10.32212956 18.36592969 10.19047609 24.80078864 5.625 30.9375 C1.1436184 35.30397438 -3.00061614 37.02497752 -9.1875 37.375 C-14.68643328 37.26026816 -18.21977983 35.4482763 -22.375 31.9375 C-26.48983246 27.60609741 -28.20752091 24.01424075 -28.6875 18.0625 C-28.50821673 11.71587242 -25.75937454 6.44714239 -21.375 1.9375 C-15.22977603 -2.51778738 -7.01552286 -2.20859053 0 0 Z " fill="#64DBFD" transform="translate(385.375,458.0625)"/>
<path d="M0 0 C2 3 2 3 1.86711121 5.90396118 C0.87347004 9.45177789 -0.29717885 10.9351915 -2.8737793 13.53662109 C-3.6952092 14.37703949 -4.5166391 15.21745789 -5.36296082 16.08334351 C-6.25767593 16.97107452 -7.15239105 17.85880554 -8.07421875 18.7734375 C-8.99080765 19.6971817 -9.90739655 20.6209259 -10.85176086 21.57266235 C-12.78972211 23.52248194 -14.73665126 25.46276032 -16.69018555 27.39697266 C-19.18962163 29.87350055 -21.66333466 32.37404632 -24.13066387 34.88251305 C-26.49350442 37.27710624 -28.87859587 39.6490277 -31.26171875 42.0234375 C-32.14631271 42.9233139 -33.03090668 43.82319031 -33.94230652 44.75033569 C-34.77949722 45.57184113 -35.61668793 46.39334656 -36.47924805 47.23974609 C-37.20903366 47.96777435 -37.93881927 48.69580261 -38.6907196 49.44589233 C-41.66014536 51.44426696 -43.48929024 51.43338278 -47 51 C-51.40731953 46.87954743 -54.27662563 40.81083523 -57.3125 35.625 C-57.87517578 34.70460937 -58.43785156 33.78421875 -59.01757812 32.8359375 C-63.47530298 25.1972413 -63.47530298 25.1972413 -62.98046875 20.8984375 C-62 18 -62 18 -60 17 C-57.125 16.625 -57.125 16.625 -54 17 C-50.83594346 20.4350813 -48.55995999 24.27007001 -46.25 28.3125 C-45.63640625 29.38113281 -45.0228125 30.44976562 -44.390625 31.55078125 C-43.93171875 32.35902344 -43.4728125 33.16726562 -43 34 C-38.18284878 29.98878333 -33.66086108 25.78739891 -29.26171875 21.32421875 C-28.65487747 20.71359085 -28.04803619 20.10296295 -27.42280579 19.47383118 C-25.50856078 17.54749227 -23.59763339 15.61791543 -21.6875 13.6875 C-19.15259745 11.12605066 -16.61442782 8.56790438 -14.07421875 6.01171875 C-13.49403488 5.42323654 -12.91385101 4.83475433 -12.31608582 4.22843933 C-7.83774744 -0.2774036 -6.31583861 -1.57895965 0 0 Z " fill="#03124A" transform="translate(295,49)"/>
<path d="M0 0 C4.99412 2.22171878 8.74247196 5.19127199 10.8046875 10.3515625 C11.67172532 15.56146233 11.61187746 20.51704422 9.1796875 25.2890625 C5.96884009 29.42936574 2.76075775 31.69953908 -2.1953125 33.3515625 C-6.89458027 33.89757266 -10.27192664 33.83938899 -14.5078125 31.6015625 C-15.3946875 30.8590625 -16.2815625 30.1165625 -17.1953125 29.3515625 C-17.9378125 28.7328125 -18.6803125 28.1140625 -19.4453125 27.4765625 C-23.17125996 22.95219773 -23.70526056 18.06298072 -23.1953125 12.3515625 C-19.65254734 2.14006291 -10.35160033 -3.05759013 0 0 Z " fill="#FB4C4C" transform="translate(158.1953125,355.6484375)"/>
<path d="M0 0 C5.96042729 -0.49670227 10.07180738 0.53380558 15 4 C21.09113819 9.71424142 25.07704819 15.24758415 25.5 23.75 C25.29529235 30.92366794 23.10774605 36.43212651 18.390625 41.84765625 C11.99238055 47.82032939 5.49890742 49.37722448 -3.09375 49.10546875 C-4.03734375 49.05326172 -4.03734375 49.05326172 -5 49 C-5 48.67 -5 48.34 -5 48 C-3.96875 47.855625 -2.9375 47.71125 -1.875 47.5625 C2.67515027 46.2888271 4.34246306 43.25284727 6.73828125 39.38671875 C11.04785156 31.23455942 11.45363928 22.04020954 8.9375 13.125 C7.29702629 8.8725099 4.55219459 5.79359435 1.42578125 2.53125 C0 1 0 1 0 0 Z " fill="#EC6520" transform="translate(466,247)"/>
<path d="M0 0 C5.9637107 -0.49697589 10.08858922 0.49584354 15 4 C20.08622402 8.80814123 24.40371433 13.42385412 25.3359375 20.578125 C25.45496778 28.71979644 23.59017446 34.74955158 18.75 41.3125 C14.06886992 45.88724076 8.25667563 48.82381309 1.640625 49.09765625 C0.85171875 49.08605469 0.0628125 49.07445312 -0.75 49.0625 C-1.54921875 49.05347656 -2.3484375 49.04445313 -3.171875 49.03515625 C-3.77515625 49.02355469 -4.3784375 49.01195312 -5 49 C-5 48.67 -5 48.34 -5 48 C-3.96875 47.855625 -2.9375 47.71125 -1.875 47.5625 C2.67515027 46.2888271 4.34246306 43.25284727 6.73828125 39.38671875 C10.84753878 31.61347927 11.49104635 22.8540513 9.3125 14.30078125 C7.08164324 8.97461074 3.63722048 4.44953305 0 0 Z " fill="#F7C32E" transform="translate(45,247)"/>
<path d="M0 0 C7.21259983 0.33391666 13.66840185 1.40246496 18.76171875 6.90234375 C20.28885753 8.88799394 21.69060829 10.86494091 23 13 C23.37511719 13.59296875 23.75023437 14.1859375 24.13671875 14.796875 C26.3627847 20.47787587 26.10046741 28.79194098 24.125 34.55078125 C20.07095793 41.41864858 13.62035644 46.71389307 6 49 C2.31735577 49.22424762 -1.31638591 49.17985096 -5 49 C-5 48.67 -5 48.34 -5 48 C-3.948125 47.79375 -2.89625 47.5875 -1.8125 47.375 C2.45033752 46.12021315 4.74243456 43.75222945 7 40 C10.88187397 32.8705452 12.08775972 26.06029955 11 18 C8.94576427 11.15604117 5.12560545 4.96588404 0 0 Z " fill="#28B633" transform="translate(255,291)"/>
<path d="M0 0 C5.59673839 -0.28948647 9.2027767 -0.23291136 14 3 C18.65204006 7.7065136 21.15058628 10.89279802 21.3125 17.625 C21.25798353 23.30834229 20.41302083 27.4123681 17 32 C12.26412797 36.61443941 8.20933105 38.10662864 1.6875 38.125 C0.12477089 38.09306101 -1.43789839 38.05459773 -3 38 C-2.38125 37.9175 -1.7625 37.835 -1.125 37.75 C1.12922959 37.20151509 1.12922959 37.20151509 2.1171875 35.2265625 C2.40851563 34.49179687 2.69984375 33.75703125 3 33 C3.35320312 32.26523437 3.70640625 31.53046875 4.0703125 30.7734375 C7.12845002 23.81900626 8.75995556 17.56549358 5.94140625 10.25390625 C4.18040073 6.65351217 2.22300423 3.33450635 0 0 Z " fill="#2CCCF9" transform="translate(374,457)"/>
<path d="M0 0 C6.22671804 1.32836651 10.38760755 3.21039945 13.96484375 8.62109375 C16.16029458 13.66648829 16.01898066 18.93173602 14.296875 24.1171875 C12.12279933 28.41006573 9.1819117 30.78102644 5 33 C2.125 33.75 2.125 33.75 0 34 C1.13700483 31.72599034 2.28716158 29.49401403 3.54296875 27.28125 C6.03340792 21.67275428 5.76748117 16.01650418 5 10 C3.92529997 7.4998298 2.76485249 5.58842263 1.09375 3.453125 C0 2 0 2 0 0 Z " fill="#E4323C" transform="translate(154,355)"/>
<path d="M0 0 C1.37351794 3.12163168 0.89111525 4.33811581 -0.1875 7.6875 C-2 11 -2 11 -4.1875 11.9375 C-4.785625 11.958125 -5.38375 11.97875 -6 12 C-4.43358249 7.69235185 -2.31663844 3.93828536 0 0 Z " fill="#439FEB" transform="translate(303,99)"/>
</svg>
